<?xml version="1.0" encoding="UTF-8" standalone="no"?>
<!DOCTYPE svg PUBLIC "-//W3C//DTD SVG 1.1//EN"
 "http://www.w3.org/Graphics/SVG/1.1/DTD/svg11.dtd">
<!-- Generated by graphviz version 2.43.0 (0)
 -->
<!-- Title: G Pages: 1 -->
<svg width="1359pt" height="979pt"
 viewBox="0.00 0.00 1358.97 979.17" xmlns="http://www.w3.org/2000/svg" xmlns:xlink="http://www.w3.org/1999/xlink">
<g id="graph0" class="graph" transform="scale(1 1) rotate(0) translate(21.6 957.57)">
<title>G</title>
<polygon fill="#111111" stroke="transparent" points="-21.6,21.6 -21.6,-957.57 1337.37,-957.57 1337.37,21.6 -21.6,21.6"/>
<!-- App.css -->
<g id="node1" class="node">
<title>App.css</title>
<path fill="none" stroke="#cfffac" d="M57.33,-586.36C57.33,-586.36 7.67,-586.36 7.67,-586.36 3.83,-586.36 0,-582.52 0,-578.69 0,-578.69 0,-571.02 0,-571.02 0,-567.19 3.83,-563.36 7.67,-563.36 7.67,-563.36 57.33,-563.36 57.33,-563.36 61.17,-563.36 65,-567.19 65,-571.02 65,-571.02 65,-578.69 65,-578.69 65,-582.52 61.17,-586.36 57.33,-586.36"/>
<text text-anchor="middle" x="32.5" y="-571.16" font-family="Arial" font-size="14.00" fill="#cfffac">App.css</text>
</g>
<!-- App.tsx -->
<g id="node2" class="node">
<title>App.tsx</title>
<path fill="none" stroke="#c6c5fe" d="M867.76,-830.38C867.76,-830.38 821.09,-830.38 821.09,-830.38 817.26,-830.38 813.42,-826.55 813.42,-822.72 813.42,-822.72 813.42,-815.05 813.42,-815.05 813.42,-811.22 817.26,-807.38 821.09,-807.38 821.09,-807.38 867.76,-807.38 867.76,-807.38 871.59,-807.38 875.42,-811.22 875.42,-815.05 875.42,-815.05 875.42,-822.72 875.42,-822.72 875.42,-826.55 871.59,-830.38 867.76,-830.38"/>
<text text-anchor="middle" x="844.42" y="-815.18" font-family="Arial" font-size="14.00" fill="#c6c5fe">App.tsx</text>
</g>
<!-- App.tsx&#45;&gt;App.css -->
<g id="edge1" class="edge">
<title>App.tsx&#45;&gt;App.css</title>
<path fill="none" stroke="#757575" d="M813.09,-809.47C687.3,-771.66 218.81,-630.85 74.85,-587.59"/>
<polygon fill="#757575" stroke="#757575" points="75.64,-584.17 65.06,-584.64 73.63,-590.87 75.64,-584.17"/>
</g>
<!-- Theme/Theme.tsx -->
<g id="node3" class="node">
<title>Theme/Theme.tsx</title>
<path fill="none" stroke="#cfffac" d="M930.17,-890.78C930.17,-890.78 818.5,-890.78 818.5,-890.78 814.67,-890.78 810.83,-886.94 810.83,-883.11 810.83,-883.11 810.83,-875.44 810.83,-875.44 810.83,-871.61 814.67,-867.78 818.5,-867.78 818.5,-867.78 930.17,-867.78 930.17,-867.78 934,-867.78 937.83,-871.61 937.83,-875.44 937.83,-875.44 937.83,-883.11 937.83,-883.11 937.83,-886.94 934,-890.78 930.17,-890.78"/>
<text text-anchor="middle" x="874.33" y="-875.58" font-family="Arial" font-size="14.00" fill="#cfffac">Theme/Theme.tsx</text>
</g>
<!-- App.tsx&#45;&gt;Theme/Theme.tsx -->
<g id="edge2" class="edge">
<title>App.tsx&#45;&gt;Theme/Theme.tsx</title>
<path fill="none" stroke="#757575" d="M850.19,-830.53C854.12,-838.47 859.43,-849.19 864.08,-858.57"/>
<polygon fill="#757575" stroke="#757575" points="861.01,-860.26 868.58,-867.67 867.28,-857.15 861.01,-860.26"/>
</g>
<!-- page/AboutMe/AboutMe.tsx -->
<g id="node4" class="node">
<title>page/AboutMe/AboutMe.tsx</title>
<path fill="none" stroke="#c6c5fe" d="M567.19,-459.97C567.19,-459.97 397.53,-459.97 397.53,-459.97 393.69,-459.97 389.86,-456.14 389.86,-452.3 389.86,-452.3 389.86,-444.64 389.86,-444.64 389.86,-440.8 393.69,-436.97 397.53,-436.97 397.53,-436.97 567.19,-436.97 567.19,-436.97 571.03,-436.97 574.86,-440.8 574.86,-444.64 574.86,-444.64 574.86,-452.3 574.86,-452.3 574.86,-456.14 571.03,-459.97 567.19,-459.97"/>
<text text-anchor="middle" x="482.36" y="-444.77" font-family="Arial" font-size="14.00" fill="#c6c5fe">page/AboutMe/AboutMe.tsx</text>
</g>
<!-- App.tsx&#45;&gt;page/AboutMe/AboutMe.tsx -->
<g id="edge3" class="edge">
<title>App.tsx&#45;&gt;page/AboutMe/AboutMe.tsx</title>
<path fill="none" stroke="#757575" d="M832.79,-806.98C780.33,-753.31 565.6,-533.63 500.9,-467.44"/>
<polygon fill="#757575" stroke="#757575" points="503.26,-464.85 493.77,-460.15 498.26,-469.74 503.26,-464.85"/>
</g>
<!-- page/Docs/Docs.tsx -->
<g id="node5" class="node">
<title>page/Docs/Docs.tsx</title>
<path fill="none" stroke="#c6c5fe" d="M979.14,-396.01C979.14,-396.01 857.47,-396.01 857.47,-396.01 853.64,-396.01 849.81,-392.17 849.81,-388.34 849.81,-388.34 849.81,-380.67 849.81,-380.67 849.81,-376.84 853.64,-373.01 857.47,-373.01 857.47,-373.01 979.14,-373.01 979.14,-373.01 982.97,-373.01 986.81,-376.84 986.81,-380.67 986.81,-380.67 986.81,-388.34 986.81,-388.34 986.81,-392.17 982.97,-396.01 979.14,-396.01"/>
<text text-anchor="middle" x="918.31" y="-380.81" font-family="Arial" font-size="14.00" fill="#c6c5fe">page/Docs/Docs.tsx</text>
</g>
<!-- App.tsx&#45;&gt;page/Docs/Docs.tsx -->
<g id="edge4" class="edge">
<title>App.tsx&#45;&gt;page/Docs/Docs.tsx</title>
<path fill="none" stroke="#757575" d="M846.4,-807.26C856.37,-748.63 901.23,-484.91 914.56,-406.54"/>
<polygon fill="#757575" stroke="#757575" points="918.06,-406.81 916.29,-396.37 911.16,-405.64 918.06,-406.81"/>
</g>
<!-- page/Landing/Landing.tsx -->
<g id="node6" class="node">
<title>page/Landing/Landing.tsx</title>
<path fill="none" stroke="#c6c5fe" d="M755.74,-854.82C755.74,-854.82 600.07,-854.82 600.07,-854.82 596.24,-854.82 592.41,-850.98 592.41,-847.15 592.41,-847.15 592.41,-839.48 592.41,-839.48 592.41,-835.65 596.24,-831.82 600.07,-831.82 600.07,-831.82 755.74,-831.82 755.74,-831.82 759.57,-831.82 763.41,-835.65 763.41,-839.48 763.41,-839.48 763.41,-847.15 763.41,-847.15 763.41,-850.98 759.57,-854.82 755.74,-854.82"/>
<text text-anchor="middle" x="677.91" y="-839.62" font-family="Arial" font-size="14.00" fill="#c6c5fe">page/Landing/Landing.tsx</text>
</g>
<!-- App.tsx&#45;&gt;page/Landing/Landing.tsx -->
<g id="edge5" class="edge">
<title>App.tsx&#45;&gt;page/Landing/Landing.tsx</title>
<path fill="none" stroke="#757575" d="M813.1,-823.48C799.76,-825.44 783.46,-827.83 766.85,-830.26"/>
<polygon fill="#757575" stroke="#757575" points="765.88,-826.87 756.5,-831.78 766.9,-833.8 765.88,-826.87"/>
</g>
<!-- page/Tools/Tools.tsx -->
<g id="node7" class="node">
<title>page/Tools/Tools.tsx</title>
<path fill="none" stroke="#c6c5fe" d="M590.16,-776.7C590.16,-776.7 467.5,-776.7 467.5,-776.7 463.66,-776.7 459.83,-772.87 459.83,-769.04 459.83,-769.04 459.83,-761.37 459.83,-761.37 459.83,-757.54 463.66,-753.7 467.5,-753.7 467.5,-753.7 590.16,-753.7 590.16,-753.7 594,-753.7 597.83,-757.54 597.83,-761.37 597.83,-761.37 597.83,-769.04 597.83,-769.04 597.83,-772.87 594,-776.7 590.16,-776.7"/>
<text text-anchor="middle" x="528.83" y="-761.5" font-family="Arial" font-size="14.00" fill="#c6c5fe">page/Tools/Tools.tsx</text>
</g>
<!-- App.tsx&#45;&gt;page/Tools/Tools.tsx -->
<g id="edge6" class="edge">
<title>App.tsx&#45;&gt;page/Tools/Tools.tsx</title>
<path fill="none" stroke="#757575" d="M813.3,-813.59C765.67,-805.49 673.23,-789.77 606.63,-778.44"/>
<polygon fill="#757575" stroke="#757575" points="607.04,-774.96 596.59,-776.73 605.86,-781.86 607.04,-774.96"/>
</g>
<!-- page/Websites/Websites.tsx -->
<g id="node8" class="node">
<title>page/Websites/Websites.tsx</title>
<path fill="none" stroke="#c6c5fe" d="M1050.11,-712.74C1050.11,-712.74 879.44,-712.74 879.44,-712.74 875.61,-712.74 871.78,-708.91 871.78,-705.08 871.78,-705.08 871.78,-697.41 871.78,-697.41 871.78,-693.58 875.61,-689.74 879.44,-689.74 879.44,-689.74 1050.11,-689.74 1050.11,-689.74 1053.94,-689.74 1057.78,-693.58 1057.78,-697.41 1057.78,-697.41 1057.78,-705.08 1057.78,-705.08 1057.78,-708.91 1053.94,-712.74 1050.11,-712.74"/>
<text text-anchor="middle" x="964.78" y="-697.54" font-family="Arial" font-size="14.00" fill="#c6c5fe">page/Websites/Websites.tsx</text>
</g>
<!-- App.tsx&#45;&gt;page/Websites/Websites.tsx -->
<g id="edge7" class="edge">
<title>App.tsx&#45;&gt;page/Websites/Websites.tsx</title>
<path fill="none" stroke="#757575" d="M856.4,-807.17C877.31,-786.74 920.61,-744.41 945.69,-719.9"/>
<polygon fill="#757575" stroke="#757575" points="948.14,-722.4 952.85,-712.9 943.25,-717.39 948.14,-722.4"/>
</g>
<!-- assets/iam.jpeg -->
<g id="node10" class="node">
<title>assets/iam.jpeg</title>
<path fill="none" stroke="#cfffac" d="M270.05,-484.09C270.05,-484.09 174.39,-484.09 174.39,-484.09 170.55,-484.09 166.72,-480.26 166.72,-476.42 166.72,-476.42 166.72,-468.76 166.72,-468.76 166.72,-464.92 170.55,-461.09 174.39,-461.09 174.39,-461.09 270.05,-461.09 270.05,-461.09 273.89,-461.09 277.72,-464.92 277.72,-468.76 277.72,-468.76 277.72,-476.42 277.72,-476.42 277.72,-480.26 273.89,-484.09 270.05,-484.09"/>
<text text-anchor="middle" x="222.22" y="-468.89" font-family="Arial" font-size="14.00" fill="#cfffac">assets/iam.jpeg</text>
</g>
<!-- page/AboutMe/AboutMe.tsx&#45;&gt;assets/iam.jpeg -->
<g id="edge18" class="edge">
<title>page/AboutMe/AboutMe.tsx&#45;&gt;assets/iam.jpeg</title>
<path fill="none" stroke="#757575" d="M389.54,-457.08C355.98,-460.19 318.81,-463.64 288.04,-466.49"/>
<polygon fill="#757575" stroke="#757575" points="287.5,-463.02 277.87,-467.43 288.15,-469.99 287.5,-463.02"/>
</g>
<!-- components/Footer/Footer.tsx -->
<g id="node16" class="node">
<title>components/Footer/Footer.tsx</title>
<path fill="none" stroke="#c6c5fe" d="M544.97,-625.89C544.97,-625.89 363.31,-625.89 363.31,-625.89 359.47,-625.89 355.64,-622.05 355.64,-618.22 355.64,-618.22 355.64,-610.55 355.64,-610.55 355.64,-606.72 359.47,-602.89 363.31,-602.89 363.31,-602.89 544.97,-602.89 544.97,-602.89 548.81,-602.89 552.64,-606.72 552.64,-610.55 552.64,-610.55 552.64,-618.22 552.64,-618.22 552.64,-622.05 548.81,-625.89 544.97,-625.89"/>
<text text-anchor="middle" x="454.14" y="-610.69" font-family="Arial" font-size="14.00" fill="#c6c5fe">components/Footer/Footer.tsx</text>
</g>
<!-- page/AboutMe/AboutMe.tsx&#45;&gt;components/Footer/Footer.tsx -->
<g id="edge19" class="edge">
<title>page/AboutMe/AboutMe.tsx&#45;&gt;components/Footer/Footer.tsx</title>
<path fill="none" stroke="#757575" d="M480.37,-460.14C475.69,-487.68 463.89,-557.08 457.84,-592.64"/>
<polygon fill="#757575" stroke="#757575" points="454.39,-592.07 456.16,-602.51 461.29,-593.24 454.39,-592.07"/>
</g>
<!-- components/Navbar/Navbar.tsx -->
<g id="node17" class="node">
<title>components/Navbar/Navbar.tsx</title>
<path fill="none" stroke="#c6c5fe" d="M864.56,-317.9C864.56,-317.9 673.9,-317.9 673.9,-317.9 670.06,-317.9 666.23,-314.06 666.23,-310.23 666.23,-310.23 666.23,-302.56 666.23,-302.56 666.23,-298.73 670.06,-294.9 673.9,-294.9 673.9,-294.9 864.56,-294.9 864.56,-294.9 868.4,-294.9 872.23,-298.73 872.23,-302.56 872.23,-302.56 872.23,-310.23 872.23,-310.23 872.23,-314.06 868.4,-317.9 864.56,-317.9"/>
<text text-anchor="middle" x="769.23" y="-302.7" font-family="Arial" font-size="14.00" fill="#c6c5fe">components/Navbar/Navbar.tsx</text>
</g>
<!-- page/AboutMe/AboutMe.tsx&#45;&gt;components/Navbar/Navbar.tsx -->
<g id="edge20" class="edge">
<title>page/AboutMe/AboutMe.tsx&#45;&gt;components/Navbar/Navbar.tsx</title>
<path fill="none" stroke="#757575" d="M505.84,-436.84C556.92,-411.55 678.25,-351.45 736.68,-322.52"/>
<polygon fill="#757575" stroke="#757575" points="738.42,-325.56 745.83,-317.99 735.32,-319.29 738.42,-325.56"/>
</g>
<!-- features/HeaderSection/HeaderSection.tsx -->
<g id="node21" class="node">
<title>features/HeaderSection/HeaderSection.tsx</title>
<path fill="none" stroke="#c6c5fe" d="M1121.33,-546.83C1121.33,-546.83 864.66,-546.83 864.66,-546.83 860.83,-546.83 857,-542.99 857,-539.16 857,-539.16 857,-531.49 857,-531.49 857,-527.66 860.83,-523.83 864.66,-523.83 864.66,-523.83 1121.33,-523.83 1121.33,-523.83 1125.16,-523.83 1129,-527.66 1129,-531.49 1129,-531.49 1129,-539.16 1129,-539.16 1129,-542.99 1125.16,-546.83 1121.33,-546.83"/>
<text text-anchor="middle" x="993" y="-531.63" font-family="Arial" font-size="14.00" fill="#c6c5fe">features/HeaderSection/HeaderSection.tsx</text>
</g>
<!-- page/AboutMe/AboutMe.tsx&#45;&gt;features/HeaderSection/HeaderSection.tsx -->
<g id="edge21" class="edge">
<title>page/AboutMe/AboutMe.tsx&#45;&gt;features/HeaderSection/HeaderSection.tsx</title>
<path fill="none" stroke="#757575" d="M550.17,-460C644.72,-476.09 815.75,-505.18 915.32,-522.11"/>
<polygon fill="#757575" stroke="#757575" points="914.87,-525.59 925.32,-523.81 916.04,-518.69 914.87,-525.59"/>
</g>
<!-- features/TimeLine/TimeLine.tsx -->
<g id="node23" class="node">
<title>features/TimeLine/TimeLine.tsx</title>
<path fill="none" stroke="#c6c5fe" d="M451.52,-350.06C451.52,-350.06 260.85,-350.06 260.85,-350.06 257.02,-350.06 253.19,-346.22 253.19,-342.39 253.19,-342.39 253.19,-334.72 253.19,-334.72 253.19,-330.89 257.02,-327.06 260.85,-327.06 260.85,-327.06 451.52,-327.06 451.52,-327.06 455.35,-327.06 459.19,-330.89 459.19,-334.72 459.19,-334.72 459.19,-342.39 459.19,-342.39 459.19,-346.22 455.35,-350.06 451.52,-350.06"/>
<text text-anchor="middle" x="356.19" y="-334.86" font-family="Arial" font-size="14.00" fill="#c6c5fe">features/TimeLine/TimeLine.tsx</text>
</g>
<!-- page/AboutMe/AboutMe.tsx&#45;&gt;features/TimeLine/TimeLine.tsx -->
<g id="edge22" class="edge">
<title>page/AboutMe/AboutMe.tsx&#45;&gt;features/TimeLine/TimeLine.tsx</title>
<path fill="none" stroke="#757575" d="M468.86,-436.71C446.94,-417.62 403.47,-379.75 377.4,-357.03"/>
<polygon fill="#757575" stroke="#757575" points="379.43,-354.16 369.59,-350.23 374.83,-359.44 379.43,-354.16"/>
</g>
<!-- page/Docs/Docs.tsx&#45;&gt;components/Footer/Footer.tsx -->
<g id="edge23" class="edge">
<title>page/Docs/Docs.tsx&#45;&gt;components/Footer/Footer.tsx</title>
<path fill="none" stroke="#757575" d="M894.97,-396.07C818.43,-433.97 574.89,-554.59 486.54,-598.34"/>
<polygon fill="#757575" stroke="#757575" points="484.93,-595.23 477.52,-602.81 488.04,-601.51 484.93,-595.23"/>
</g>
<!-- page/Docs/Docs.tsx&#45;&gt;components/Navbar/Navbar.tsx -->
<g id="edge24" class="edge">
<title>page/Docs/Docs.tsx&#45;&gt;components/Navbar/Navbar.tsx</title>
<path fill="none" stroke="#757575" d="M896.31,-372.98C870.99,-359.71 829.2,-337.82 800.5,-322.78"/>
<polygon fill="#757575" stroke="#757575" points="801.8,-319.51 791.32,-317.97 798.55,-325.71 801.8,-319.51"/>
</g>
<!-- features/DocList/DocList.tsx -->
<g id="node18" class="node">
<title>features/DocList/DocList.tsx</title>
<path fill="none" stroke="#c6c5fe" d="M1111.11,-289.98C1111.11,-289.98 942.44,-289.98 942.44,-289.98 938.61,-289.98 934.78,-286.15 934.78,-282.32 934.78,-282.32 934.78,-274.65 934.78,-274.65 934.78,-270.82 938.61,-266.98 942.44,-266.98 942.44,-266.98 1111.11,-266.98 1111.11,-266.98 1114.94,-266.98 1118.78,-270.82 1118.78,-274.65 1118.78,-274.65 1118.78,-282.32 1118.78,-282.32 1118.78,-286.15 1114.94,-289.98 1111.11,-289.98"/>
<text text-anchor="middle" x="1026.78" y="-274.78" font-family="Arial" font-size="14.00" fill="#c6c5fe">features/DocList/DocList.tsx</text>
</g>
<!-- page/Docs/Docs.tsx&#45;&gt;features/DocList/DocList.tsx -->
<g id="edge25" class="edge">
<title>page/Docs/Docs.tsx&#45;&gt;features/DocList/DocList.tsx</title>
<path fill="none" stroke="#757575" d="M930.33,-372.76C948.98,-354.53 985.06,-319.26 1007.42,-297.41"/>
<polygon fill="#757575" stroke="#757575" points="1009.99,-299.78 1014.7,-290.29 1005.1,-294.77 1009.99,-299.78"/>
</g>
<!-- page/Docs/Docs.tsx&#45;&gt;features/HeaderSection/HeaderSection.tsx -->
<g id="edge26" class="edge">
<title>page/Docs/Docs.tsx&#45;&gt;features/HeaderSection/HeaderSection.tsx</title>
<path fill="none" stroke="#757575" d="M924.17,-396.34C936.82,-421.89 966.83,-482.49 982.72,-514.58"/>
<polygon fill="#757575" stroke="#757575" points="979.59,-516.14 987.16,-523.55 985.86,-513.03 979.59,-516.14"/>
</g>
<!-- page/Landing/Landing.tsx&#45;&gt;components/Footer/Footer.tsx -->
<g id="edge27" class="edge">
<title>page/Landing/Landing.tsx&#45;&gt;components/Footer/Footer.tsx</title>
<path fill="none" stroke="#757575" d="M666.5,-831.65C630.22,-794.52 517.2,-678.91 472.55,-633.23"/>
<polygon fill="#757575" stroke="#757575" points="475.01,-630.74 465.52,-626.03 470.01,-635.63 475.01,-630.74"/>
</g>
<!-- page/Landing/Landing.tsx&#45;&gt;components/Navbar/Navbar.tsx -->
<g id="edge28" class="edge">
<title>page/Landing/Landing.tsx&#45;&gt;components/Navbar/Navbar.tsx</title>
<path fill="none" stroke="#757575" d="M679.9,-831.6C691.49,-763.44 750.28,-417.84 765.58,-327.84"/>
<polygon fill="#757575" stroke="#757575" points="769.04,-328.4 767.26,-317.96 762.14,-327.23 769.04,-328.4"/>
</g>
<!-- features/Feature/Feature.tsx -->
<g id="node20" class="node">
<title>features/Feature/Feature.tsx</title>
<path fill="none" stroke="#cfffac" d="M749.94,-935.97C749.94,-935.97 578.27,-935.97 578.27,-935.97 574.44,-935.97 570.6,-932.13 570.6,-928.3 570.6,-928.3 570.6,-920.63 570.6,-920.63 570.6,-916.8 574.44,-912.97 578.27,-912.97 578.27,-912.97 749.94,-912.97 749.94,-912.97 753.77,-912.97 757.6,-916.8 757.6,-920.63 757.6,-920.63 757.6,-928.3 757.6,-928.3 757.6,-932.13 753.77,-935.97 749.94,-935.97"/>
<text text-anchor="middle" x="664.1" y="-920.77" font-family="Arial" font-size="14.00" fill="#cfffac">features/Feature/Feature.tsx</text>
</g>
<!-- page/Landing/Landing.tsx&#45;&gt;features/Feature/Feature.tsx -->
<g id="edge29" class="edge">
<title>page/Landing/Landing.tsx&#45;&gt;features/Feature/Feature.tsx</title>
<path fill="none" stroke="#757575" d="M675.93,-854.94C673.82,-867.36 670.42,-887.31 667.81,-902.67"/>
<polygon fill="#757575" stroke="#757575" points="664.3,-902.42 666.08,-912.86 671.2,-903.59 664.3,-902.42"/>
</g>
<!-- page/Landing/Landing.tsx&#45;&gt;features/HeaderSection/HeaderSection.tsx -->
<g id="edge30" class="edge">
<title>page/Landing/Landing.tsx&#45;&gt;features/HeaderSection/HeaderSection.tsx</title>
<path fill="none" stroke="#757575" d="M689.87,-831.62C737.64,-784.93 914.91,-611.66 973.82,-554.07"/>
<polygon fill="#757575" stroke="#757575" points="976.31,-556.53 981.02,-547.03 971.42,-551.52 976.31,-556.53"/>
</g>
<!-- page/Tools/Tools.tsx&#45;&gt;components/Footer/Footer.tsx -->
<g id="edge31" class="edge">
<title>page/Tools/Tools.tsx&#45;&gt;components/Footer/Footer.tsx</title>
<path fill="none" stroke="#757575" d="M522.97,-753.37C510.32,-727.82 480.3,-667.22 464.41,-635.14"/>
<polygon fill="#757575" stroke="#757575" points="467.55,-633.57 459.97,-626.17 461.27,-636.68 467.55,-633.57"/>
</g>
<!-- page/Tools/Tools.tsx&#45;&gt;components/Navbar/Navbar.tsx -->
<g id="edge32" class="edge">
<title>page/Tools/Tools.tsx&#45;&gt;components/Navbar/Navbar.tsx</title>
<path fill="none" stroke="#757575" d="M535.02,-753.4C567.29,-691.8 716.55,-406.94 758.33,-327.2"/>
<polygon fill="#757575" stroke="#757575" points="761.55,-328.6 763.09,-318.12 755.35,-325.36 761.55,-328.6"/>
</g>
<!-- page/Tools/Tools.tsx&#45;&gt;features/HeaderSection/HeaderSection.tsx -->
<g id="edge33" class="edge">
<title>page/Tools/Tools.tsx&#45;&gt;features/HeaderSection/HeaderSection.tsx</title>
<path fill="none" stroke="#757575" d="M552.17,-753.65C628.7,-715.74 872.25,-595.13 960.59,-551.37"/>
<polygon fill="#757575" stroke="#757575" points="962.21,-554.48 969.62,-546.91 959.1,-548.21 962.21,-554.48"/>
</g>
<!-- features/ToolsList/ToolList.tsx -->
<g id="node25" class="node">
<title>features/ToolsList/ToolList.tsx</title>
<path fill="none" stroke="#cfffac" d="M557.41,-835.11C557.41,-835.11 380.74,-835.11 380.74,-835.11 376.91,-835.11 373.08,-831.28 373.08,-827.45 373.08,-827.45 373.08,-819.78 373.08,-819.78 373.08,-815.95 376.91,-812.11 380.74,-812.11 380.74,-812.11 557.41,-812.11 557.41,-812.11 561.24,-812.11 565.08,-815.95 565.08,-819.78 565.08,-819.78 565.08,-827.45 565.08,-827.45 565.08,-831.28 561.24,-835.11 557.41,-835.11"/>
<text text-anchor="middle" x="469.08" y="-819.91" font-family="Arial" font-size="14.00" fill="#cfffac">features/ToolsList/ToolList.tsx</text>
</g>
<!-- page/Tools/Tools.tsx&#45;&gt;features/ToolsList/ToolList.tsx -->
<g id="edge34" class="edge">
<title>page/Tools/Tools.tsx&#45;&gt;features/ToolsList/ToolList.tsx</title>
<path fill="none" stroke="#757575" d="M517.03,-776.74C508.76,-784.82 497.54,-795.79 488.03,-805.09"/>
<polygon fill="#757575" stroke="#757575" points="485.56,-802.6 480.86,-812.1 490.45,-807.61 485.56,-802.6"/>
</g>
<!-- page/Websites/Websites.tsx&#45;&gt;components/Footer/Footer.tsx -->
<g id="edge35" class="edge">
<title>page/Websites/Websites.tsx&#45;&gt;components/Footer/Footer.tsx</title>
<path fill="none" stroke="#757575" d="M896.97,-689.71C802.41,-673.63 631.39,-644.54 531.82,-627.6"/>
<polygon fill="#757575" stroke="#757575" points="532.27,-624.13 521.82,-625.9 531.09,-631.03 532.27,-624.13"/>
</g>
<!-- page/Websites/Websites.tsx&#45;&gt;components/Navbar/Navbar.tsx -->
<g id="edge36" class="edge">
<title>page/Websites/Websites.tsx&#45;&gt;components/Navbar/Navbar.tsx</title>
<path fill="none" stroke="#757575" d="M958.92,-689.42C931.43,-633.91 814.95,-398.71 779.51,-327.15"/>
<polygon fill="#757575" stroke="#757575" points="782.63,-325.58 775.06,-318.17 776.36,-328.68 782.63,-325.58"/>
</g>
<!-- page/Websites/Websites.tsx&#45;&gt;features/HeaderSection/HeaderSection.tsx -->
<g id="edge37" class="edge">
<title>page/Websites/Websites.tsx&#45;&gt;features/HeaderSection/HeaderSection.tsx</title>
<path fill="none" stroke="#757575" d="M966.76,-689.57C971.45,-662.03 983.25,-592.63 989.3,-557.07"/>
<polygon fill="#757575" stroke="#757575" points="992.75,-557.65 990.98,-547.2 985.85,-556.47 992.75,-557.65"/>
</g>
<!-- features/WebsiteList/WebsiteList.tsx -->
<g id="node26" class="node">
<title>features/WebsiteList/WebsiteList.tsx</title>
<path fill="none" stroke="#cfffac" d="M1156.66,-756.26C1156.66,-756.26 938.99,-756.26 938.99,-756.26 935.16,-756.26 931.32,-752.42 931.32,-748.59 931.32,-748.59 931.32,-740.92 931.32,-740.92 931.32,-737.09 935.16,-733.26 938.99,-733.26 938.99,-733.26 1156.66,-733.26 1156.66,-733.26 1160.49,-733.26 1164.32,-737.09 1164.32,-740.92 1164.32,-740.92 1164.32,-748.59 1164.32,-748.59 1164.32,-752.42 1160.49,-756.26 1156.66,-756.26"/>
<text text-anchor="middle" x="1047.82" y="-741.06" font-family="Arial" font-size="14.00" fill="#cfffac">features/WebsiteList/WebsiteList.tsx</text>
</g>
<!-- page/Websites/Websites.tsx&#45;&gt;features/WebsiteList/WebsiteList.tsx -->
<g id="edge38" class="edge">
<title>page/Websites/Websites.tsx&#45;&gt;features/WebsiteList/WebsiteList.tsx</title>
<path fill="none" stroke="#757575" d="M987.03,-712.9C996.13,-717.67 1006.82,-723.27 1016.68,-728.44"/>
<polygon fill="#757575" stroke="#757575" points="1015.31,-731.67 1025.8,-733.21 1018.56,-725.47 1015.31,-731.67"/>
</g>
<!-- assets/headerSectionLogo.png -->
<g id="node9" class="node">
<title>assets/headerSectionLogo.png</title>
<path fill="none" stroke="#cfffac" d="M1235.02,-433.48C1235.02,-433.48 1047.35,-433.48 1047.35,-433.48 1043.52,-433.48 1039.68,-429.65 1039.68,-425.82 1039.68,-425.82 1039.68,-418.15 1039.68,-418.15 1039.68,-414.32 1043.52,-410.48 1047.35,-410.48 1047.35,-410.48 1235.02,-410.48 1235.02,-410.48 1238.85,-410.48 1242.68,-414.32 1242.68,-418.15 1242.68,-418.15 1242.68,-425.82 1242.68,-425.82 1242.68,-429.65 1238.85,-433.48 1235.02,-433.48"/>
<text text-anchor="middle" x="1141.18" y="-418.28" font-family="Arial" font-size="14.00" fill="#cfffac">assets/headerSectionLogo.png</text>
</g>
<!-- assets/instagram.png -->
<g id="node11" class="node">
<title>assets/instagram.png</title>
<path fill="none" stroke="#cfffac" d="M397.73,-694.64C397.73,-694.64 267.07,-694.64 267.07,-694.64 263.23,-694.64 259.4,-690.81 259.4,-686.98 259.4,-686.98 259.4,-679.31 259.4,-679.31 259.4,-675.48 263.23,-671.64 267.07,-671.64 267.07,-671.64 397.73,-671.64 397.73,-671.64 401.57,-671.64 405.4,-675.48 405.4,-679.31 405.4,-679.31 405.4,-686.98 405.4,-686.98 405.4,-690.81 401.57,-694.64 397.73,-694.64"/>
<text text-anchor="middle" x="332.4" y="-679.44" font-family="Arial" font-size="14.00" fill="#cfffac">assets/instagram.png</text>
</g>
<!-- assets/linkedin.png -->
<g id="node12" class="node">
<title>assets/linkedin.png</title>
<path fill="none" stroke="#cfffac" d="M375.55,-591.27C375.55,-591.27 259.89,-591.27 259.89,-591.27 256.05,-591.27 252.22,-587.44 252.22,-583.6 252.22,-583.6 252.22,-575.94 252.22,-575.94 252.22,-572.1 256.05,-568.27 259.89,-568.27 259.89,-568.27 375.55,-568.27 375.55,-568.27 379.39,-568.27 383.22,-572.1 383.22,-575.94 383.22,-575.94 383.22,-583.6 383.22,-583.6 383.22,-587.44 379.39,-591.27 375.55,-591.27"/>
<text text-anchor="middle" x="317.72" y="-576.07" font-family="Arial" font-size="14.00" fill="#cfffac">assets/linkedin.png</text>
</g>
<!-- assets/logo.png -->
<g id="node13" class="node">
<title>assets/logo.png</title>
<path fill="none" stroke="#cfffac" d="M650.55,-342.33C650.55,-342.33 554.88,-342.33 554.88,-342.33 551.05,-342.33 547.21,-338.5 547.21,-334.66 547.21,-334.66 547.21,-327 547.21,-327 547.21,-323.16 551.05,-319.33 554.88,-319.33 554.88,-319.33 650.55,-319.33 650.55,-319.33 654.38,-319.33 658.21,-323.16 658.21,-327 658.21,-327 658.21,-334.66 658.21,-334.66 658.21,-338.5 654.38,-342.33 650.55,-342.33"/>
<text text-anchor="middle" x="602.71" y="-327.13" font-family="Arial" font-size="14.00" fill="#cfffac">assets/logo.png</text>
</g>
<!-- components/CTAButton/CTAButton.tsx -->
<g id="node14" class="node">
<title>components/CTAButton/CTAButton.tsx</title>
<path fill="none" stroke="#c6c5fe" d="M908.95,-186.28C908.95,-186.28 674.28,-186.28 674.28,-186.28 670.45,-186.28 666.62,-182.45 666.62,-178.62 666.62,-178.62 666.62,-170.95 666.62,-170.95 666.62,-167.12 670.45,-163.28 674.28,-163.28 674.28,-163.28 908.95,-163.28 908.95,-163.28 912.78,-163.28 916.62,-167.12 916.62,-170.95 916.62,-170.95 916.62,-178.62 916.62,-178.62 916.62,-182.45 912.78,-186.28 908.95,-186.28"/>
<text text-anchor="middle" x="791.62" y="-171.08" font-family="Arial" font-size="14.00" fill="#c6c5fe">components/CTAButton/CTAButton.tsx</text>
</g>
<!-- components/CTAButton/CTAButton.type.ts -->
<g id="node15" class="node">
<title>components/CTAButton/CTAButton.type.ts</title>
<path fill="none" stroke="#cfffac" d="M947.72,-23C947.72,-23 691.06,-23 691.06,-23 687.22,-23 683.39,-19.17 683.39,-15.33 683.39,-15.33 683.39,-7.67 683.39,-7.67 683.39,-3.83 687.22,0 691.06,0 691.06,0 947.72,0 947.72,0 951.56,0 955.39,-3.83 955.39,-7.67 955.39,-7.67 955.39,-15.33 955.39,-15.33 955.39,-19.17 951.56,-23 947.72,-23"/>
<text text-anchor="middle" x="819.39" y="-7.8" font-family="Arial" font-size="14.00" fill="#cfffac">components/CTAButton/CTAButton.type.ts</text>
</g>
<!-- components/CTAButton/CTAButton.tsx&#45;&gt;components/CTAButton/CTAButton.type.ts -->
<g id="edge8" class="edge">
<title>components/CTAButton/CTAButton.tsx&#45;&gt;components/CTAButton/CTAButton.type.ts</title>
<path fill="none" stroke="#757575" d="M793.61,-163.04C798.24,-135.86 809.74,-68.25 815.69,-33.26"/>
<polygon fill="#757575" stroke="#757575" points="819.18,-33.58 817.41,-23.14 812.28,-32.41 819.18,-33.58"/>
</g>
<!-- components/Footer/Footer.tsx&#45;&gt;assets/instagram.png -->
<g id="edge9" class="edge">
<title>components/Footer/Footer.tsx&#45;&gt;assets/instagram.png</title>
<path fill="none" stroke="#757575" d="M433.76,-625.9C414.01,-637.05 383.85,-654.08 361.56,-666.67"/>
<polygon fill="#757575" stroke="#757575" points="359.83,-663.63 352.84,-671.6 363.27,-669.73 359.83,-663.63"/>
</g>
<!-- components/Footer/Footer.tsx&#45;&gt;assets/linkedin.png -->
<g id="edge10" class="edge">
<title>components/Footer/Footer.tsx&#45;&gt;assets/linkedin.png</title>
<path fill="none" stroke="#757575" d="M408.71,-602.86C397.33,-599.97 384.99,-596.84 373.18,-593.84"/>
<polygon fill="#757575" stroke="#757575" points="373.97,-590.43 363.41,-591.37 372.24,-597.22 373.97,-590.43"/>
</g>
<!-- components/Footer/Footer.tsx&#45;&gt;assets/logo.png -->
<g id="edge11" class="edge">
<title>components/Footer/Footer.tsx&#45;&gt;assets/logo.png</title>
<path fill="none" stroke="#757575" d="M460.33,-602.56C483.18,-558.96 562.9,-406.81 591.99,-351.3"/>
<polygon fill="#757575" stroke="#757575" points="595.12,-352.87 596.66,-342.39 588.91,-349.62 595.12,-352.87"/>
</g>
<!-- components/Navbar/Navbar.tsx&#45;&gt;assets/logo.png -->
<g id="edge12" class="edge">
<title>components/Navbar/Navbar.tsx&#45;&gt;assets/logo.png</title>
<path fill="none" stroke="#757575" d="M690.85,-317.9C683.31,-319 675.72,-320.12 668.32,-321.2"/>
<polygon fill="#757575" stroke="#757575" points="667.76,-317.75 658.37,-322.66 668.78,-324.67 667.76,-317.75"/>
</g>
<!-- components/Navbar/Navbar.tsx&#45;&gt;components/CTAButton/CTAButton.tsx -->
<g id="edge13" class="edge">
<title>components/Navbar/Navbar.tsx&#45;&gt;components/CTAButton/CTAButton.tsx</title>
<path fill="none" stroke="#757575" d="M771.22,-294.72C774.96,-272.72 783.1,-224.85 787.89,-196.69"/>
<polygon fill="#757575" stroke="#757575" points="791.38,-197.07 789.6,-186.63 784.47,-195.9 791.38,-197.07"/>
</g>
<!-- features/DocList/DocList.type.ts -->
<g id="node19" class="node">
<title>features/DocList/DocList.type.ts</title>
<path fill="none" stroke="#cfffac" d="M1217.08,-197.15C1217.08,-197.15 1026.41,-197.15 1026.41,-197.15 1022.58,-197.15 1018.74,-193.32 1018.74,-189.49 1018.74,-189.49 1018.74,-181.82 1018.74,-181.82 1018.74,-177.99 1022.58,-174.15 1026.41,-174.15 1026.41,-174.15 1217.08,-174.15 1217.08,-174.15 1220.91,-174.15 1224.74,-177.99 1224.74,-181.82 1224.74,-181.82 1224.74,-189.49 1224.74,-189.49 1224.74,-193.32 1220.91,-197.15 1217.08,-197.15"/>
<text text-anchor="middle" x="1121.74" y="-181.95" font-family="Arial" font-size="14.00" fill="#cfffac">features/DocList/DocList.type.ts</text>
</g>
<!-- features/DocList/DocList.tsx&#45;&gt;features/DocList/DocList.type.ts -->
<g id="edge14" class="edge">
<title>features/DocList/DocList.tsx&#45;&gt;features/DocList/DocList.type.ts</title>
<path fill="none" stroke="#757575" d="M1038.8,-266.73C1054.86,-251.03 1083.48,-223.06 1102.54,-204.43"/>
<polygon fill="#757575" stroke="#757575" points="1105.11,-206.81 1109.81,-197.32 1100.22,-201.8 1105.11,-206.81"/>
</g>
<!-- features/HeaderSection/HeaderSection.tsx&#45;&gt;assets/headerSectionLogo.png -->
<g id="edge15" class="edge">
<title>features/HeaderSection/HeaderSection.tsx&#45;&gt;assets/headerSectionLogo.png</title>
<path fill="none" stroke="#757575" d="M1008.3,-523.62C1034.25,-503.77 1087.07,-463.37 1117.73,-439.92"/>
<polygon fill="#757575" stroke="#757575" points="1119.93,-442.65 1125.74,-433.79 1115.67,-437.09 1119.93,-442.65"/>
</g>
<!-- features/HeaderSection/HeaderSection.type.ts -->
<g id="node22" class="node">
<title>features/HeaderSection/HeaderSection.type.ts</title>
<path fill="none" stroke="#cfffac" d="M1308.1,-589.96C1308.1,-589.96 1028.44,-589.96 1028.44,-589.96 1024.6,-589.96 1020.77,-586.13 1020.77,-582.29 1020.77,-582.29 1020.77,-574.63 1020.77,-574.63 1020.77,-570.79 1024.6,-566.96 1028.44,-566.96 1028.44,-566.96 1308.1,-566.96 1308.1,-566.96 1311.94,-566.96 1315.77,-570.79 1315.77,-574.63 1315.77,-574.63 1315.77,-582.29 1315.77,-582.29 1315.77,-586.13 1311.94,-589.96 1308.1,-589.96"/>
<text text-anchor="middle" x="1168.27" y="-574.76" font-family="Arial" font-size="14.00" fill="#cfffac">features/HeaderSection/HeaderSection.type.ts</text>
</g>
<!-- features/HeaderSection/HeaderSection.tsx&#45;&gt;features/HeaderSection/HeaderSection.type.ts -->
<g id="edge16" class="edge">
<title>features/HeaderSection/HeaderSection.tsx&#45;&gt;features/HeaderSection/HeaderSection.type.ts</title>
<path fill="none" stroke="#757575" d="M1039.97,-546.88C1061.96,-552.3 1088.35,-558.79 1111.46,-564.48"/>
<polygon fill="#757575" stroke="#757575" points="1110.93,-567.95 1121.47,-566.94 1112.6,-561.15 1110.93,-567.95"/>
</g>
<!-- features/TimeLine/TimeLine.type.ts -->
<g id="node24" class="node">
<title>features/TimeLine/TimeLine.type.ts</title>
<path fill="none" stroke="#cfffac" d="M341.92,-272.16C341.92,-272.16 128.25,-272.16 128.25,-272.16 124.42,-272.16 120.58,-268.33 120.58,-264.49 120.58,-264.49 120.58,-256.83 120.58,-256.83 120.58,-252.99 124.42,-249.16 128.25,-249.16 128.25,-249.16 341.92,-249.16 341.92,-249.16 345.75,-249.16 349.58,-252.99 349.58,-256.83 349.58,-256.83 349.58,-264.49 349.58,-264.49 349.58,-268.33 345.75,-272.16 341.92,-272.16"/>
<text text-anchor="middle" x="235.08" y="-256.96" font-family="Arial" font-size="14.00" fill="#cfffac">features/TimeLine/TimeLine.type.ts</text>
</g>
<!-- features/TimeLine/TimeLine.tsx&#45;&gt;features/TimeLine/TimeLine.type.ts -->
<g id="edge17" class="edge">
<title>features/TimeLine/TimeLine.tsx&#45;&gt;features/TimeLine/TimeLine.type.ts</title>
<path fill="none" stroke="#757575" d="M338.06,-326.89C317.9,-313.93 285.14,-292.86 261.99,-277.97"/>
<polygon fill="#757575" stroke="#757575" points="263.64,-274.87 253.34,-272.4 259.85,-280.76 263.64,-274.87"/>
</g>
</g>
</svg>
